<svg xmlns="http://www.w3.org/2000/svg" viewBox="0 0 200 60" width="200" height="60">
  <!-- degree circle -->
  <circle cx="18" cy="16" r="5" fill="none" stroke="#111" stroke-width="2.5"/>
  <!-- C swoosh body -->
  <path d="M42 52 C20 52 8 40 8 30 C8 18 20 8 42 8 L52 8 L52 18 C38 18 22 22 22 30 C22 38 38 42 52 42 L52 52 Z" fill="#111"/>
  <!-- inner cutout for C shape -->
  <path d="M52 18 L44 18 C34 18 28 23 28 30 C28 37 34 42 44 42 L52 42 L52 52 L44 52 C26 52 14 42 14 30 C14 18 26 8 44 8 L52 8 Z" fill="#111"/>
  <text x="68" y="34" font-family="Arial Black, Arial, sans-serif" font-size="22" font-weight="900" fill="#111" letter-spacing="1">CELSIUS</text>
  <text x="68" y="48" font-family="Arial, Helvetica, sans-serif" font-size="9" font-weight="700" fill="#111" letter-spacing="2.5">LIVE FIT</text>
</svg>
